<?xml version="1.0" standalone="no"?>
<!DOCTYPE svg PUBLIC "-//W3C//DTD SVG 20010904//EN"
 "http://www.w3.org/TR/2001/REC-SVG-20010904/DTD/svg10.dtd">
<svg version="1.0" xmlns="http://www.w3.org/2000/svg"
 width="512.000000pt" height="512.000000pt" viewBox="0 0 512.000000 512.000000"
 preserveAspectRatio="xMidYMid meet">

<g transform="translate(0.000000,512.000000) scale(0.100000,-0.100000)"
fill="#000000" stroke="none">
<path d="M1460 3814 c-171 -34 -270 -84 -381 -194 -95 -94 -143 -171 -182
-290 -82 -252 -48 -588 85 -855 37 -74 123 -207 179 -278 54 -68 79 -122 79
-175 0 -93 -50 -149 -179 -200 -161 -65 -312 -141 -491 -250 -142 -86 -262
-189 -304 -259 -6 -10 264 -13 1334 -13 l1341 0 -12 23 c-24 45 -146 160 -224
212 -95 63 -286 159 -405 205 -140 53 -266 118 -294 150 -37 45 -50 101 -36
163 13 62 42 113 131 232 160 213 249 477 249 739 0 263 -65 441 -215 592 -90
90 -153 130 -270 170 -71 24 -97 28 -230 30 -82 1 -161 0 -175 -2z"/>
<path d="M3595 3615 c-226 -42 -400 -200 -471 -430 -16 -50 -19 -91 -18 -240
0 -167 2 -187 28 -270 36 -120 101 -253 172 -350 94 -131 104 -146 114 -184
13 -50 -4 -108 -44 -146 -18 -16 -70 -45 -117 -64 -84 -33 -297 -141 -376
-190 l-43 -27 61 -44 c33 -24 89 -74 124 -112 l65 -68 885 0 c487 0 885 3 885
8 0 18 -81 106 -144 156 -78 62 -277 168 -413 220 -191 73 -262 124 -264 189
-3 89 17 137 106 257 75 101 142 237 181 365 38 129 45 341 15 467 -68 287
-278 460 -571 473 -59 3 -125 -1 -175 -10z"/>
</g>
</svg>
