<?xml version="1.0" standalone="no"?>
<!DOCTYPE svg PUBLIC "-//W3C//DTD SVG 20010904//EN"
 "http://www.w3.org/TR/2001/REC-SVG-20010904/DTD/svg10.dtd">
<svg version="1.0" xmlns="http://www.w3.org/2000/svg"
 width="512.000000pt" height="512.000000pt" viewBox="0 0 512.000000 512.000000"
 preserveAspectRatio="xMidYMid meet">

<g transform="translate(0.000000,512.000000) scale(0.100000,-0.100000)"
fill="#000000" stroke="none">
<path d="M1455 4544 c-245 -34 -390 -99 -526 -234 -75 -75 -94 -100 -137 -191
-77 -158 -82 -187 -82 -471 l0 -245 -26 -24 c-56 -51 -64 -85 -64 -302 0 -221
5 -245 67 -308 23 -25 43 -61 59 -108 51 -151 153 -322 263 -443 l51 -56 0
-149 c0 -105 -5 -165 -15 -201 -30 -99 -51 -117 -445 -363 -311 -194 -375
-238 -431 -297 -111 -116 -168 -262 -169 -430 0 -74 10 -107 39 -129 12 -10
360 -12 1553 -13 l1536 0 27 32 c27 32 28 34 22 135 -10 180 -75 324 -196 435
-33 30 -202 143 -396 263 -193 120 -359 230 -385 255 -69 67 -80 109 -80 303
l0 159 66 76 c112 131 191 266 240 407 17 51 39 93 60 115 66 70 74 103 74
315 0 179 -2 193 -24 240 -13 28 -33 59 -45 69 -20 19 -21 26 -21 256 0 204
-3 248 -20 315 -43 167 -147 329 -273 422 -149 110 -321 163 -547 168 -80 2
-158 1 -175 -1z"/>
<path d="M2392 4539 c-110 -14 -110 -11 -28 -92 120 -119 213 -279 257 -442
19 -68 23 -114 27 -309 4 -223 5 -231 28 -265 52 -77 59 -118 59 -361 0 -211
-2 -228 -23 -283 -13 -31 -41 -79 -63 -107 -21 -27 -50 -78 -63 -112 -55 -146
-145 -301 -237 -410 l-49 -56 0 -126 c0 -116 2 -127 23 -149 12 -14 179 -123
371 -243 233 -145 370 -237 413 -277 116 -109 206 -274 233 -429 7 -37 10
-118 8 -182 l-3 -116 377 0 376 0 27 32 c27 32 28 34 22 139 -6 120 -33 214
-89 306 -60 100 -149 169 -518 399 -190 119 -355 224 -366 235 -12 11 -34 43
-50 72 -28 51 -29 56 -32 225 l-4 172 60 68 c114 129 194 264 248 417 19 54
41 95 69 126 23 26 47 65 53 87 15 48 16 382 2 433 -5 19 -26 54 -45 76 l-35
41 0 238 c0 269 -7 316 -70 449 -113 243 -317 389 -614 440 -94 16 -259 18
-364 4z"/>
<path d="M3365 4539 c-115 -16 -113 -10 -32 -92 87 -86 146 -170 199 -283 70
-150 81 -209 85 -469 4 -169 8 -234 18 -245 25 -30 53 -97 65 -156 8 -39 10
-129 8 -255 -5 -221 -16 -267 -90 -360 -22 -28 -48 -76 -59 -106 -44 -130
-149 -311 -244 -422 l-45 -53 0 -123 c0 -114 2 -126 23 -149 12 -13 179 -122
370 -241 215 -134 371 -238 408 -273 103 -95 177 -213 218 -347 29 -92 46
-264 33 -333 l-9 -52 376 0 c280 1 380 4 392 13 29 22 39 55 39 129 -1 168
-58 314 -169 430 -56 59 -121 103 -436 301 -470 295 -455 276 -455 556 l0 153
51 56 c110 121 212 292 263 443 16 47 36 83 59 108 62 62 67 87 67 306 0 214
-4 235 -59 297 l-31 36 0 238 c0 281 -7 321 -81 473 -44 91 -63 117 -138 192
-76 75 -101 93 -192 137 -109 53 -187 76 -310 92 -88 11 -241 11 -324 -1z"/>
</g>
</svg>
