<?xml version="1.0" standalone="no"?>
<!DOCTYPE svg PUBLIC "-//W3C//DTD SVG 20010904//EN"
 "http://www.w3.org/TR/2001/REC-SVG-20010904/DTD/svg10.dtd">
<svg version="1.0" xmlns="http://www.w3.org/2000/svg"
 width="512.000000pt" height="512.000000pt" viewBox="0 0 512.000000 512.000000"
 preserveAspectRatio="xMidYMid meet">

<g transform="translate(0.000000,512.000000) scale(0.100000,-0.100000)"
fill="#000000" stroke="none">
<path d="M2392 5106 c-279 -54 -507 -194 -672 -416 -62 -83 -137 -243 -167
-355 -23 -87 -26 -120 -26 -255 0 -136 3 -167 26 -255 32 -120 107 -276 175
-365 61 -81 179 -193 255 -243 405 -268 942 -222 1291 112 89 86 147 162 201
264 89 167 131 355 121 537 -29 544 -462 968 -1006 986 -81 2 -151 -1 -198
-10z"/>
<path d="M1810 2710 c-239 -23 -431 -111 -602 -278 -136 -131 -227 -294 -268
-477 -6 -25 -53 -381 -106 -792 -102 -800 -103 -811 -62 -922 28 -77 139 -187
222 -219 l58 -22 1509 0 1509 0 56 22 c86 35 185 131 217 211 47 117 47 117
-57 930 -53 411 -101 768 -106 793 -82 364 -374 653 -745 737 -85 19 -127 20
-815 23 -399 1 -763 -2 -810 -6z"/>
</g>
</svg>
